<svg xmlns="http://www.w3.org/2000/svg" viewBox="0 0 100 100">
  <circle cx="50" cy="50" r="48" fill="#fbbf24"/>
  <circle cx="50" cy="50" r="18" fill="#92400e"/>
  <!-- Petals -->
  <ellipse cx="50" cy="15" rx="10" ry="18" fill="#f59e0b" transform="rotate(0 50 50)"/>
  <ellipse cx="50" cy="15" rx="10" ry="18" fill="#f59e0b" transform="rotate(45 50 50)"/>
  <ellipse cx="50" cy="15" rx="10" ry="18" fill="#f59e0b" transform="rotate(90 50 50)"/>
  <ellipse cx="50" cy="15" rx="10" ry="18" fill="#f59e0b" transform="rotate(135 50 50)"/>
  <ellipse cx="50" cy="15" rx="10" ry="18" fill="#f59e0b" transform="rotate(180 50 50)"/>
  <ellipse cx="50" cy="15" rx="10" ry="18" fill="#f59e0b" transform="rotate(225 50 50)"/>
  <ellipse cx="50" cy="15" rx="10" ry="18" fill="#f59e0b" transform="rotate(270 50 50)"/>
  <ellipse cx="50" cy="15" rx="10" ry="18" fill="#f59e0b" transform="rotate(315 50 50)"/>
  <circle cx="50" cy="50" r="14" fill="#78350f"/>
</svg>
